<svg viewBox="0 0 512 512" xmlns="http://www.w3.org/2000/svg">
   <path fill="#8832a8"
      d="M 0,256 C 0,114.6 114.6,0 256,0 397.4,0 512,114.6 512,256 512,397.4 397.4,512 256,512 114.6,512 0,397.4 0,256 Z m 161.5,-86.1 c -12.2,-5.2 -26.3,0.4 -31.5,12.6 -5.2,12.2 0.4,26.3 12.6,31.5 l 11.9,5.1 c 17.3,7.4 35.2,12.9 53.6,16.3 v 50.1 c 0,4.3 -0.7,8.6 -2.1,12.6 l -28.7,86.1 c -4.2,12.6 2.6,26.2 15.2,30.4 12.6,4.2 26.2,-2.6 30.4,-15.2 l 24.4,-73.2 c 1.3,-3.8 4.8,-6.4 8.8,-6.4 4,0 7.6,2.6 8.8,6.4 l 24.4,73.2 c 4.2,12.6 17.8,19.4 30.4,15.2 12.6,-4.2 19.3,-17.6 15.1,-30.2 L 306.1,298.3 C 304.7,294.2 304,290 304,285.7 v -50.1 c 18.4,-3.5 36.3,-8.9 53.6,-16.3 l 11.9,-5.1 c 12.2,-5.2 17.8,-19.3 12.6,-31.5 -5.2,-12.2 -19.3,-17.8 -31.5,-12.6 l -11.9,4.9 c -26.1,11.2 -54.2,17 -82.7,17 -28.5,0 -56.5,-5.8 -82.7,-17 l -11.9,-5.1 z M 256,160 c 22.1,0 40,-17.9 40,-40 0,-22.1 -17.9,-40 -40,-40 -22.1,0 -40,17.9 -40,40 0,22.1 17.9,40 40,40 z" />
</svg>