<?xml version="1.0" encoding="UTF-8" standalone="no"?>
<svg viewBox="0 0 440 440" width="440" height="440" xmlns="http://www.w3.org/2000/svg">
   <path style="fill:#c854c3" d="M 220,0 40,180 62,202 204,60 v 102 h 31 V 59 l 143,143 22,-22 z" />
   <path style="fill:#c854c3" d="m 281,377 22,22 17.02,-17.02 27.001,27.02 H 320 v 31 h 80 v -80 h -31 v 27 l -27,-27 17,-17 -22,-22 z" />
   <path style="fill:#c854c3" d="m 62,320 -22,22 38,38 -38,38 22,22 38,-38 38,38 22,-22 -38,-38 32,-32 -22,-22 -32,32 z" />
   <path style="fill:#8732a7" d="M 219.5,137 A 117.5,117.5 0 0 0 102,254.5 117.5,117.5 0 0 0 219.5,372 117.5,117.5 0 0 0 337,254.5 117.5,117.5 0 0 0 219.5,137 Z m 0,31 A 86.5,86.5 0 0 1 306,254.5 86.5,86.5 0 0 1 219.5,341 86.5,86.5 0 0 1 133,254.5 86.5,86.5 0 0 1 219.5,168 Z" />
   <path style="fill:#8732a7" d="M 242,260 220,281.895 320.02,381.98 342,360 Z" />
</svg>