<?xml version="1.0" encoding="UTF-8" standalone="no"?>
<svg version="1.0" viewBox="0 0 360 439" xmlns="http://www.w3.org/2000/svg">
   <style>
      @media (prefers-color-scheme: dark) {
         #qzkLogo {
            fill: #9f80ee;
         }
      }
   </style>
   <path id="qzkLogo" fill="#5433a8"
      d="M 0,179 22,201 163.5,59.5 v 78.2 c -16.87,0.944 -41.052,10.822 -60.371,27.654 -16.0115,13.949 -28.5321,32.002 -35.429,51.746 -7.0679,20.143 -9.1158,41.469 -4.3353,62.545 1.8736,8.26 8.3251,31.122 25.1353,47.855 l -29,29 L 22,319 0.5,341.5 37,379 0.5,416.6 22.2,437.9 59.6,401.7 97,438 119.5,416.5 82,379 111.7,349.3 c 9.175,5.6 16.7,11.131 26.788,14.863 17.034,6.133 36.665,7.862 52.812,6.037 12.683,-1.417 24.921,-3.704 36.62,-9.087 6.356,-2.753 13.339,-7.059 19.08,-11.913 l 10.5,10.2 -16.3,16.5 21.7,22.1 17.1,-16 25,25 h -25.5 v 32 h 80 v -80 h -32 v 25.5 l -25,-25 17,-17 -22.5,-22.5 -17,17 -9.6,-9.6 c 10.865,-11.13 17.223,-26.65 20.729,-38.281 7.864,-26.082 5.893,-49.304 4.071,-57.719 -5.3,-23.6 -16.7,-43.5 -35.3,-61.5 C 241.993,152.036 220.016,140.659 195,137.5 L 193.944,59.3552 337.1,200.9 359,179 179.5,0 Z m 196.6,-10.4 c 22.563,4.235 40.933,16.278 53.504,34.523 11.07,15.328 15.606,32.818 15.796,51.377 0.189,27.993 -10.929,45.006 -16.113,51.408 L 202,259 l -22.5,22.5 46,46.1 c -10.224,6.477 -23.384,13.398 -50.8,12.1 -22.954,-0.133 -42.855,-11.228 -58.355,-27.471 C 103.142,298.093 83.255,268.29 97,226.4 c 13.6,-41 56.6,-66 99.6,-57.8 z" />
</svg>