<svg viewBox="0 0 17.5 17.5" xmlns="http://www.w3.org/2000/svg">
    <g style="stroke:#8832a8;stroke-width:1.5;fill:none">
        <path
            d="m 16.75,8.75 c 0,4.4183 -3.5817,8 -8,8 -4.41828,0 -8,-3.5817 -8,-8 0,-4.41828 3.58172,-8 8,-8 4.4183,0 8,3.58172 8,8 z" />
        <path d="m 8.75,0.75 v 16" />
        <path d="m 8.75,0.75 c 0,0 4.5,2 4.5,8 0,6 -4.5,8 -4.5,8" />
        <path d="m 8.75,16.75 c 0,0 -4.5,-2 -4.5,-8 0,-6 4.5,-8 4.5,-8" />
        <path d="m 1.75,6 h 14" />
        <path d="m 1.75,11.55 h 14" />
    </g>
</svg>