<svg viewBox="0 0 17.5 17.5" xmlns="http://www.w3.org/2000/svg">
   <path style="fill:none;stroke:#8832a8;stroke-width:1.5"
      d="m 16.75,8.75 c 0,4.4183 -3.5817,8 -8,8 -4.41828,0 -8,-3.5817 -8,-8 0,-4.41828 3.58172,-8 8,-8 4.4183,0 8,3.58172 8,8 z" />
   <path style="fill:#8832a8;stroke:none"
      d="M 8.75,-0.0703125 8.4453125,0.06445312 C 8.444771,0.06469382 5.361679,1.50547 4.0644531,5.25 H 1.75 v 1.5 H 3.6738281 C 3.5627017,7.3668774 3.5,8.0327114 3.5,8.75 c 0,0.7370145 0.066682,1.419705 0.1835938,2.050781 H 1.75 v 1.5 h 2.3320312 c 1.3074755,3.707127 4.3632813,5.134766 4.3632813,5.134766 L 8.75,17.570312 9.0546875,17.435547 c 2.831e-4,-1.26e-4 0.8423564,-0.393825 1.8320315,-1.304688 -0.05753,-0.09941 -0.105079,-0.205862 -0.142578,-0.318359 h -0.002 v -0.0039 l -0.002,0.0039 h -0.002 C 10.433424,16.727065 9.4164261,17.233861 8.5039062,16.929688 7.644443,16.643199 7.1422372,15.729096 7.3398438,14.859375 6.7418668,14.305232 6.0842008,13.482763 5.6191406,12.300781 l 2.5332032,0.0078 0.10157,-0.244136 v -0.73438 C 7.9289937,11.233058 7.5921191,11.168129 7.28125,11.035156 L 6.9257812,10.882812 c -0.057634,-0.02456 -0.112439,-0.05199 -0.1660156,-0.08203 H 5.1875 C 5.0690861,10.188261 5,9.5069075 5,8.75 5,8.0139447 5.0652787,7.3493387 5.1777344,6.75 H 8 l 0.5141012,3.226e-4 C 8.5351673,6.2927563 8.9914239,5.5733216 9.5,5.2324219 v -3.125 c 0.709463,0.4954552 1.721142,1.4325594 2.369141,3.0566406 0.663976,0.39314 1.179477,1.0743574 1.115234,1.9355469 -0.01415,0.1897053 0.181646,0.5410177 0.181646,0.5410177 0.248487,-0.105917 0.510217,-0.1495543 0.767573,-0.1367209 C 13.905682,7.2446238 13.870097,6.9938306 13.826172,6.75 H 15.75 V 5.25 H 13.435547 C 12.13821,1.5051231 9.0546875,0.06445312 9.0546875,0.06445312 Z M 8,2.1074219 V 5.25 H 5.5976562 C 6.243854,3.5733981 7.2781968,2.6114981 8,2.1074219 Z m 6.730469,8.6933591 c -0.05679,0.03235 -0.116376,0.06174 -0.177735,0.08789 l -0.353515,0.152344 c -0.314457,0.134507 -0.648754,0.200328 -0.97461,0.296875 v 0.732421 l 0.06839,0.222647 2.457,0.0078 v -1.5 z" />
   <path
      d="m 10.73823,5.9 c -0.663,0 -1.2000003,0.537 -1.2000003,1.2 0,0.663 0.5370003,1.2 1.2000003,1.2 0.663,0 1.2,-0.537 1.2,-1.2 0,-0.663 -0.537,-1.2 -1.2,-1.2 z M 7.623093,8.5387694 C 7.3424055,8.5373633 7.0752297,8.7005 6.9582297,8.975 c -0.156,0.3660003 0.011988,0.7890003 0.3779883,0.9450003 l 0.3570117,0.1529877 c 0.519,0.222 1.0559883,0.387023 1.6079883,0.489023 V 12.065 c 0,0.129 -0.020988,0.257988 -0.062988,0.377988 l -0.8609766,2.582988 c -0.126,0.378 0.077977,0.786012 0.4559766,0.912012 0.378,0.126 0.7860117,-0.07798 0.9120117,-0.455977 l 0.7320123,-2.196035 c 0.039,-0.114 0.143965,-0.191953 0.263965,-0.191953 0.12,0 0.228023,0.07795 0.264023,0.191953 l 0.732012,2.196035 c 0.126,0.378 0.533953,0.581977 0.911953,0.455977 0.377999,-0.126 0.579046,-0.527977 0.453046,-0.905977 l -0.861035,-2.582988 c -0.042,-0.123 -0.06299,-0.249047 -0.06299,-0.378047 v -1.502988 c 0.552,-0.105 1.088988,-0.266965 1.607988,-0.488965 l 0.357012,-0.1530467 c 0.366,-0.156 0.533988,-0.579 0.377988,-0.9449997 -0.156,-0.366 -0.579,-0.5339883 -0.945,-0.3779883 L 13.219206,8.75 C 12.436207,9.0860003 11.59323,9.2600003 10.73823,9.2600003 9.8832297,9.2600003 9.0432531,9.0860003 8.2572531,8.75 L 7.9002414,8.5970117 h 0.00299 c -0.0915,-0.039 -0.1865742,-0.057773 -0.2801367,-0.058242 z"
      style="fill:#8832a8;stroke:none" />
</svg>