<svg viewBox="0 0 887 485" width="887" height="485" version="1.1" xmlns="http://www.w3.org/2000/svg">
  <g fill="#ffffff" transform="rotate(-3,864.6,22.64)" shape-rendering="geometricPrecision">
    <path d="M 180,0 0,180 22,202 164,60 v 78.1 A 117.5,117.5 0 0 0 62,254.5 117.5,117.5 0 0 0 88.93,329.1 L 60,358 22,320 0,342 l 38,38 -38,38 22,22 38,-38 38,38 22,-22 -38,-38 29.8,-29.8 a 117.5,117.5 0 0 0 67.7,21.8 117.5,117.5 0 0 0 68.3,-22.2 l 10.2,10.2 -17,17 22,22 17,-17 27,27 h -27 v 31 h 58 22 v -22 -58 h -31 v 27 l -27,-27 17,-17 -22,-22 -17,17 -9.5,-9.5 A 117.5,117.5 0 0 0 297,254.5 117.5,117.5 0 0 0 195,138.1 V 59 l 143,143 22,-22 z m -0.5,168 a 86.5,86.5 0 0 1 86.5,86.5 86.5,86.5 0 0 1 -17.6,51.9 L 202,260 l -22,21.9 45.5,45.6 A 86.5,86.5 0 0 1 179.5,341 86.5,86.5 0 0 1 93,254.5 86.5,86.5 0 0 1 179.5,168 Z" />
    <path d="m 520.5,228.7 c -5,0 -9,1.7 -12,5.2 -2.9,3.4 -4.4,8.3 -4.4,14.5 0,4.3 0.6,7.9 1.7,10.9 1.1,2.9 2.8,5.5 5.1,8 l 11.7,12.7 c 2.2,2.4 4,4.8 5.4,7.2 1.5,2.3 2.2,5.4 2.2,9.3 0,3.2 -0.7,5.7 -2,7.5 -1.2,1.6 -3.1,2.5 -5.7,2.5 -2.5,0 -4.4,-0.9 -5.8,-2.6 -1.3,-1.9 -2.4,-4.2 -3,-7 -0.6,-2.8 -0.9,-5.8 -1.1,-8.8 L 504,291 c 0.2,4.9 1,9.2 2.4,13 1.4,3.7 3.4,6.6 6,8.7 2.7,2.1 6.1,3.2 10.1,3.2 3.3,0 6.2,-0.8 8.6,-2.4 2.6,-1.7 4.6,-4 6,-7 1.5,-3.1 2.2,-6.8 2.2,-11 0,-5.3 -1,-9.9 -3.1,-13.8 -2,-4 -4.3,-7.3 -6.9,-10.2 l -11.9,-12.6 c -1.6,-1.8 -2.8,-3.5 -3.5,-5.2 -0.7,-1.7 -1,-3.8 -1,-6.4 0,-3.1 0.6,-5.5 1.9,-7 1.4,-1.6 3.3,-2.4 5.7,-2.4 2.5,0 4.3,0.7 5.6,2.2 1.3,1.4 2.2,3.3 2.7,5.7 0.5,2.3 0.9,4.9 1.1,7.7 l 8.2,-2.8 c -0.2,-3.7 -0.8,-6.9 -1.7,-9.7 -0.8,-2.8 -1.9,-5.1 -3.4,-6.9 -1.3,-1.9 -3.1,-3.2 -5.2,-4.1 -2.1,-0.9 -4.5,-1.3 -7.3,-1.3 z m -212.1,0.7 v 56.7 c 0,6 0.5,11.2 1.5,15.7 1,4.5 2.8,7.9 5.5,10.4 2.7,2.5 6.6,3.7 11.6,3.7 5.1,0 9,-1.2 11.6,-3.7 2.7,-2.5 4.5,-5.9 5.5,-10.4 1,-4.5 1.5,-9.7 1.5,-15.7 v -56.7 h -9.2 v 57.2 c 0,3.7 -0.2,7 -0.6,10.1 -0.4,3 -1.3,5.4 -2.6,7.2 -1.4,1.7 -3.4,2.6 -6.2,2.6 -2.7,0 -4.7,-0.9 -6.1,-2.6 -1.3,-1.8 -2.2,-4.2 -2.6,-7.2 -0.4,-3.1 -0.6,-6.4 -0.6,-10.1 v -57.2 z m 47.5,0 v 85.5 h 27.2 v -8.5 H 365.6 V 275 h 14.1 v -8.4 H 365.6 V 238.3 H 383 v -8.9 z m 35.1,0 v 85.5 h 27.3 v -8.5 H 400.8 V 275 h 14 v -8.4 h -14 v -28.3 h 17.3 v -8.9 z m 35.1,0 v 85.5 h 9.8 v -40.1 h 7.6 l 9.1,40.1 h 9.4 l -9.9,-42.8 c 2.1,-0.9 3.7,-2.2 5,-4 1.3,-1.9 2.2,-4.2 2.8,-6.9 0.5,-2.7 0.8,-5.8 0.8,-9.1 0,-5.4 -0.7,-9.8 -2.2,-13.1 -1.4,-3.4 -3.7,-5.8 -6.7,-7.3 -3.1,-1.5 -6.9,-2.3 -11.6,-2.3 z m 44.8,0 v 85.5 h 27.3 v -8.5 H 480.7 V 275 h 14 v -8.4 h -14 V 238.3 H 498 v -8.9 z m -35,8.6 h 4.3 c 4.4,0 7.4,1.1 8.9,3.3 1.5,2.2 2.2,5.8 2.2,10.8 0,3.7 -0.4,6.5 -1.2,8.6 -0.8,2 -2.1,3.5 -3.8,4.3 -1.7,0.8 -4,1.3 -6.7,1.3 h -3.7 z" />
    <path d="m 371.4,360.8 v 7.7 h 17.5 l -18.7,61.7 v 7.7 h 28.1 v -7.7 h -19.7 l 19.7,-64.8 v -4.7 z m 33.5,0 v 77.1 h 24.9 v -7.7 h -16 v -28.3 h 12.8 v -7.6 h -12.8 v -25.5 h 15.8 v -8 z m 32,0 v 77.1 h 7.5 v -52.7 l 18.3,52.7 h 5.7 V 360.8 H 461 V 412 l -18.1,-51.2 z m 37.7,0 v 8 h 10.8 v 69.1 h 8.8 v -69.1 h 10.5 v -8 z m 36.2,0 v 77.1 h 8.9 v -36.2 h 6.9 l 8.3,36.2 h 8.6 l -9.1,-38.7 c 1.9,-0.7 3.4,-1.9 4.6,-3.6 1.1,-1.7 2,-3.8 2.5,-6.2 0.5,-2.5 0.8,-5.2 0.8,-8.2 0,-4.9 -0.7,-8.8 -2.1,-11.8 -1.3,-3 -3.3,-5.2 -6.1,-6.6 -2.8,-1.3 -6.3,-2 -10.5,-2 z m 40,0 v 51.1 c 0,5.4 0.5,10.1 1.4,14.2 0.9,4 2.6,7.1 5,9.3 2.5,2.3 6,3.4 10.6,3.4 4.6,0 8.1,-1.1 10.5,-3.4 2.5,-2.2 4.2,-5.3 5,-9.3 0.9,-4.1 1.4,-8.8 1.4,-14.2 v -51.1 h -8.4 v 51.6 c 0,3.3 -0.2,6.3 -0.6,9 -0.3,2.8 -1.1,4.9 -2.3,6.5 -1.2,1.6 -3.1,2.4 -5.6,2.4 -2.5,0 -4.3,-0.8 -5.6,-2.4 -1.2,-1.6 -2,-3.7 -2.3,-6.5 -0.4,-2.7 -0.6,-5.7 -0.6,-9 v -51.6 z m 43.3,0 -1.1,77.1 h 6.8 l 0.6,-56 10.1,56 h 4.7 l 10.2,-56 0.6,56 h 6.8 l -1.1,-77.1 h -8.2 l -10.6,62.5 -10.6,-62.5 z m -74.4,7.7 h 3.9 c 4,0 6.7,1 8.1,3 1.3,2 2,5.2 2,9.7 0,3.3 -0.3,5.9 -1.1,7.8 -0.7,1.8 -1.9,3.1 -3.4,3.9 -1.6,0.7 -3.6,1.1 -6.2,1.1 h -3.3 z" />
    <path d="m 749.1,360.1 c -4.5,0 -8.1,1.5 -10.8,4.7 -2.6,3.1 -3.9,7.4 -3.9,13.1 0,3.9 0.5,7.1 1.5,9.8 0.9,2.6 2.5,5 4.5,7.3 l 10.6,11.4 c 2,2.1 3.6,4.3 4.9,6.5 1.3,2.1 1.9,4.9 1.9,8.3 0,3 -0.6,5.2 -1.8,6.8 -1.1,1.5 -2.8,2.3 -5.1,2.3 -2.2,0 -4,-0.8 -5.2,-2.4 -1.2,-1.6 -2.1,-3.7 -2.7,-6.3 -0.5,-2.5 -0.9,-5.1 -1,-7.9 l -7.8,2.6 c 0.2,4.4 1,8.3 2.2,11.7 1.2,3.4 3.1,6 5.4,7.9 2.5,1.9 5.5,2.9 9.1,2.9 2.9,0 5.5,-0.8 7.7,-2.2 2.3,-1.5 4.1,-3.6 5.4,-6.3 1.3,-2.8 1.9,-6.1 1.9,-9.9 0,-4.8 -0.9,-9 -2.7,-12.5 -1.8,-3.6 -3.9,-6.6 -6.3,-9.1 l -10.6,-11.5 c -1.4,-1.6 -2.5,-3.1 -3.2,-4.6 -0.6,-1.6 -0.9,-3.5 -0.9,-5.9 0,-2.8 0.6,-4.8 1.8,-6.2 1.2,-1.5 2.9,-2.2 5.1,-2.2 2.2,0 3.8,0.6 5,2 1.2,1.2 2,2.9 2.5,5.1 0.4,2.1 0.7,4.4 0.9,7 l 7.4,-2.5 c -0.2,-3.4 -0.7,-6.3 -1.5,-8.8 -0.7,-2.5 -1.8,-4.6 -3,-6.3 -1.3,-1.6 -2.9,-2.8 -4.8,-3.6 -1.8,-0.8 -4,-1.2 -6.5,-1.2 z m 36.1,0 c -4.5,0 -8.1,1.5 -10.7,4.7 -2.7,3.1 -4,7.4 -4,13.1 0,3.9 0.5,7.1 1.5,9.8 1,2.6 2.5,5 4.6,7.3 l 10.5,11.4 c 2,2.1 3.6,4.3 4.9,6.5 1.3,2.1 1.9,4.9 1.9,8.3 0,3 -0.6,5.2 -1.8,6.8 -1.1,1.5 -2.8,2.3 -5.1,2.3 -2.2,0 -3.9,-0.8 -5.2,-2.4 -1.2,-1.6 -2.1,-3.7 -2.7,-6.3 -0.5,-2.5 -0.8,-5.1 -1,-7.9 l -7.7,2.6 c 0.2,4.4 0.9,8.3 2.1,11.7 1.3,3.4 3.1,6 5.4,7.9 2.5,1.9 5.5,2.9 9.1,2.9 3,0 5.5,-0.8 7.8,-2.2 2.2,-1.5 4,-3.6 5.3,-6.3 1.3,-2.8 1.9,-6.1 1.9,-9.9 0,-4.8 -0.9,-9 -2.7,-12.5 -1.8,-3.6 -3.9,-6.6 -6.2,-9.1 l -10.7,-11.5 c -1.4,-1.6 -2.5,-3.1 -3.1,-4.6 -0.7,-1.6 -1,-3.5 -1,-5.9 0,-2.8 0.6,-4.8 1.8,-6.2 1.3,-1.5 3,-2.2 5.1,-2.2 2.2,0 3.9,0.6 5,2 1.2,1.2 2,3 2.5,5.1 0.4,2.1 0.8,4.4 0.9,7 L 801,380 c -0.2,-3.4 -0.7,-6.3 -1.5,-8.8 -0.7,-2.5 -1.7,-4.6 -3,-6.3 -1.3,-1.6 -2.8,-2.8 -4.8,-3.6 -1.8,-0.8 -4,-1.2 -6.5,-1.2 z m -125.4,0.7 v 77.1 h 8.8 v -27.2 l 4,-9 12,36.2 h 8.6 l -14.4,-43.1 12.3,-34 H 683 l -14.4,36.3 v -36.3 z m 48.3,0 -13.3,77.1 h 8.2 l 3,-19.4 h 12.8 l 2.9,19.4 h 8.3 l -13.4,-77.1 z m 100.8,0 v 77.1 h 24.5 v -7.7 h -15.8 v -28.3 h 12.7 v -7.6 h -12.7 v -25.5 h 15.6 v -8 z m 31.5,0 v 77.1 h 24.8 v -7.7 h -16 v -69.4 z m -128,15.2 5.3,34.8 h -10.5 z" />
  </g>
</svg>