<?xml version="1.0" encoding="UTF-8" standalone="no"?>
<svg
   viewBox="0 0 800 440"
   width="800"
   height="440"
   version="1.1"
   id="svg3"
   sodipodi:docname="logo-draft.svg"
   inkscape:version="1.3.2 (091e20ef0f, 2023-11-25, custom)"
   xmlns:inkscape="http://www.inkscape.org/namespaces/inkscape"
   xmlns:sodipodi="http://sodipodi.sourceforge.net/DTD/sodipodi-0.dtd"
   xmlns="http://www.w3.org/2000/svg"
   xmlns:svg="http://www.w3.org/2000/svg">
  <defs
     id="defs3" />
  <sodipodi:namedview
     id="namedview3"
     pagecolor="#505050"
     bordercolor="#ffffff"
     borderopacity="1"
     inkscape:showpageshadow="0"
     inkscape:pageopacity="0"
     inkscape:pagecheckerboard="1"
     inkscape:deskcolor="#d1d1d1"
     inkscape:zoom="2.62867"
     inkscape:cx="289.5"
     inkscape:cy="213.226"
     inkscape:window-width="3840"
     inkscape:window-height="1982"
     inkscape:window-x="0"
     inkscape:window-y="40"
     inkscape:window-maximized="1"
     inkscape:current-layer="svg3" />
  <path
     id="path5"
     style="fill:#ffffff;fill-opacity:1;stroke-width:3.0029;stroke-linecap:round;stroke-linejoin:round;paint-order:stroke markers fill"
     d="M 179.5,137 A 117.5,117.5 0 0 0 62,254.5 117.5,117.5 0 0 0 179.5,372 117.5,117.5 0 0 0 297,254.5 117.5,117.5 0 0 0 179.5,137 Z m 0,31 A 86.5,86.5 0 0 1 266,254.5 86.5,86.5 0 0 1 179.5,341 86.5,86.5 0 0 1 93,254.5 86.5,86.5 0 0 1 179.5,168 Z" />
  <path
     id="rect5"
     style="fill:#ffffff;stroke-width:4.02678;stroke-linecap:round;stroke-linejoin:round;paint-order:stroke markers fill;fill-opacity:1"
     d="M 180 0 L 0 180 L 22 202 L 164 60 L 164 162 L 195 162 L 195 59 L 338 202 L 360 180 L 180 0 z " />
  <path
     id="rect5-3"
     style="fill:#ffffff;stroke-width:4.02678;stroke-linecap:round;stroke-linejoin:round;paint-order:stroke markers fill;fill-opacity:1"
     d="M 202 260 L 180 281.895 L 258.027 359.973 L 241 377 L 263 399 L 280.02 381.98 L 307.021 409 L 280 409 L 280 440 L 338 440 L 360 440 L 360 418 L 360 360 L 329 360 L 329 387 L 302 360 L 319 343 L 297 321 L 280 338 L 202 260 z " />
  <path
     id="rect8-1"
     style="fill:#ffffff;fill-opacity:1;stroke-width:3;stroke-linecap:round;stroke-linejoin:round;paint-order:stroke markers fill"
     d="M 22 320 L 0 342 L 38 380 L 0 418 L 22 440 L 60 402 L 98 440 L 120 418 L 82 380 L 114 348 L 92 326 L 60 358 L 22 320 z " />
</svg>
