<?xml version="1.0" encoding="UTF-8" standalone="no"?>
<svg viewBox="0 0 800 439" width="800" height="439" xmlns="http://www.w3.org/2000/svg">
   <path fill="#ffffff"
      d="M 0,179 22,201 163.5,59.4999 V 137.7 c -16.87,0.944 -41.052,10.822 -60.371,27.654 -16.011,13.949 -28.532,32.002 -35.429,51.746 -7.068,20.143 -9.116,41.469 -4.335,62.545 1.873,8.26 8.325,31.122 25.135,47.855 l -29,29 L 22,319 0.5,341.5 37,379 0.5,416.6 22.2,437.9 59.6,401.7 97,438 119.5,416.5 82,379 111.7,349.3 c 9.175,5.6 16.7,11.131 26.788,14.863 17.034,6.133 36.665,7.862 52.812,6.037 12.683,-1.417 24.921,-3.704 36.62,-9.087 6.356,-2.753 13.339,-7.059 19.08,-11.913 l 10.5,10.2 -16.3,16.5 21.7,22.1 17.1,-16 25,25 h -25.5 v 32 h 80 v -80 h -32 v 25.5 l -25,-25 17,-17 -22.5,-22.5 -17,17 -9.6,-9.6 c 10.865,-11.13 17.223,-26.65 20.729,-38.281 7.864,-26.082 5.893,-49.304 4.071,-57.719 -5.3,-23.6 -16.7,-43.5 -35.3,-61.5 C 241.993,152.036 220.016,140.659 195,137.5 L 193.944,59.3552 337.1,200.9 359,179 179.5,0 Z m 196.6,-10.4 c 22.563,4.235 40.933,16.278 53.504,34.523 11.07,15.328 15.606,32.818 15.796,51.377 0.189,27.993 -10.929,45.006 -16.113,51.408 L 202,259 l -22.5,22.5 46,46.1 c -10.224,6.477 -23.384,13.398 -50.8,12.1 -22.954,-0.133 -42.855,-11.228 -58.355,-27.471 C 103.142,298.093 83.255,268.29 97,226.4 c 13.6,-41 56.6,-66 99.6,-57.8 z" />
   <path fill="#ffffff"
      d="m 311.166,241.787 h 7.816 q 0.51,0 1.019,1.019 v 68.649 h 5.098 v -68.988 q 0.06,-0.68 0.68,-0.68 h 8.156 q 0.68,0.113 0.68,0.68 v 70.347 q 0,7.477 -9.856,8.383 h -4.078 q -7.93,0 -10.195,-6.684 -0.34,-3.455 -0.34,-5.437 v -66.27 q 0,-0.396 1.02,-1.019 z m 29.793,0.17 h 19.371 q 0.679,0.113 0.679,0.679 v 8.157 q 0,0.679 -0.679,0.679 h -10.536 v 25.489 h 8.836 q 0.68,0.113 0.68,0.679 v 8.157 q 0,0.679 -0.68,0.679 h -8.836 v 25.149 h 10.536 q 0.679,0.113 0.679,0.679 v 8.157 q 0,0.679 -0.679,0.679 h -19.371 q -0.68,0 -0.68,-0.679 v -77.825 q 0.06,-0.679 0.68,-0.679 z m 26.394,0 h 19.371 q 0.68,0.113 0.68,0.679 v 8.157 q 0,0.679 -0.68,0.679 h -10.535 v 25.489 h 8.836 q 0.68,0.113 0.68,0.679 v 8.157 q 0,0.679 -0.68,0.679 h -8.836 v 25.149 h 10.535 q 0.68,0.113 0.68,0.679 v 8.157 q 0,0.679 -0.68,0.679 h -19.371 q -0.68,0 -0.68,-0.679 v -77.825 q 0.06,-0.679 0.68,-0.679 z m 35.57,34.834 h 5.098 v -25.149 h -5.098 z m -8.836,-35.004 h 11.895 q 8.893,0 10.875,5.437 0.396,1.133 0.51,1.869 0.17,0.737 0.17,1.19 v 27.867 q 0,2.322 -2.719,6.117 4.078,34.494 4.078,36.703 l -0.68,0.227 H 410.4 q -1.473,0 -2.379,-13.48 -0.34,0 -2.719,-21.411 h -2.379 v 33.985 q 0,0.566 -1.019,0.906 h -7.817 q -0.623,0 -1.019,-0.906 v -77.485 q 0,-0.396 1.019,-1.019 z m 31.153,0.17 h 19.371 q 0.68,0.113 0.68,0.679 v 8.157 q 0,0.679 -0.68,0.679 h -10.535 v 25.489 h 8.836 q 0.679,0.113 0.679,0.679 v 8.157 q 0,0.679 -0.679,0.679 h -8.836 v 25.149 h 10.535 q 0.68,0.113 0.68,0.679 v 8.157 q 0,0.679 -0.68,0.679 H 425.24 q -0.68,0 -0.68,-0.679 v -77.825 q 0.06,-0.679 0.68,-0.679 z m 34.041,-0.114 h 7.703 q 8.326,1.7 8.326,8.327 v 14.386 q 0,0.68 -0.68,0.68 h -7.986 q -0.51,0 -1.019,-1.019 V 251.529 H 460.3 v 25.375 h 6.967 q 8.043,2.039 8.043,7.986 v 28.094 q -1.699,8.213 -8.326,8.213 h -7.703 q -8.326,-1.586 -8.326,-7.93 v -14.67 q 0.06,-0.679 0.623,-0.679 h 8.043 q 0.679,0.113 0.679,0.679 v 13.028 h 5.325 V 286.25 h -6.684 q -7.986,-1.869 -7.986,-7.987 v -28.377 q 0,-6.173 8.326,-8.043 z"
      aria-label="Queeres" />
   <path fill="#ffffff"
      d="m 346.936,296.899 h 25.828 q 0.679,0.113 0.679,0.68 v 8.496 q 0,0.68 -0.679,0.68 h -8.157 -0.679 -0.737 -6.853 -0.793 -0.453 -8.156 q -0.68,0 -0.68,-0.68 v -8.496 q 0.06,-0.68 0.68,-0.68 z m 0,69.668 h 25.828 q 0.679,0.113 0.679,0.68 v 8.496 q 0,0.566 -0.679,0.566 h -8.157 -0.679 -0.737 -6.853 -0.793 -0.453 -8.156 q -0.68,0 -0.68,-0.566 v -8.496 q 0.06,-0.68 0.68,-0.68 z m 17.671,-61.059 h 8.157 q 0.113,0 0.396,0.284 0.34,0.283 0.283,0.396 l -17.672,60.889 q -0.113,0.34 -0.226,0.51 -0.113,0.169 -0.453,0.169 h -8.156 q -0.114,0 -0.454,-0.226 -0.283,-0.227 -0.226,-0.453 l 17.672,-60.889 q 0.06,-0.68 0.679,-0.68 z m 15.18,-8.439 h 19.371 q 0.68,0.113 0.68,0.68 v 8.156 q 0,0.68 -0.68,0.68 h -10.535 v 25.488 h 8.836 q 0.68,0.113 0.68,0.68 v 8.156 q 0,0.679 -0.68,0.679 h -8.836 v 25.149 h 10.535 q 0.68,0.113 0.68,0.68 v 8.156 q 0,0.68 -0.68,0.68 h -19.371 q -0.68,0 -0.68,-0.68 v -77.824 q 0.06,-0.68 0.68,-0.68 z m 26.734,-0.17 h 7.817 q 1.359,0 3.398,14.273 1.02,3.059 5.098,26.508 h 0.34 v -39.761 q 0,-0.397 1.019,-1.02 h 6.797 q 0.51,0 1.02,1.02 v 77.484 q 0,0.566 -1.02,0.906 h -7.476 q -0.793,0 -1.756,-5.097 -0.906,-5.155 -3.002,-15.52 -0.623,-3.229 -1.756,-8.383 -1.133,-5.154 -2.322,-12.687 h -0.34 v 40.781 q 0,0.566 -1.02,0.906 h -6.797 q -0.623,0 -1.019,-0.906 v -77.484 q 0,-0.397 1.019,-1.02 z m 31.833,0 h 25.828 q 0.679,0.113 0.679,0.68 v 8.496 q 0,0.68 -0.679,0.68 h -8.157 v 68.648 q 0,0.566 -1.019,0.906 h -7.817 q -0.679,0 -0.679,-0.566 v -68.988 h -8.156 q -0.68,0 -0.68,-0.68 v -8.496 q 0.06,-0.68 0.68,-0.68 z m 42.027,35.004 h 5.098 v -25.148 h -5.098 z m -8.836,-35.004 h 11.894 q 8.893,0 10.875,5.438 0.397,1.132 0.51,1.869 0.17,0.736 0.17,1.189 v 27.867 q 0,2.323 -2.719,6.118 4.079,34.494 4.079,36.703 l -0.68,0.226 h -7.817 q -1.472,0 -2.378,-13.48 -0.34,0 -2.719,-21.41 h -2.379 v 33.984 q 0,0.566 -1.02,0.906 h -7.816 q -0.623,0 -1.02,-0.906 v -77.484 q 0,-0.397 1.02,-1.02 z m 31.492,0 h 7.817 q 0.509,0 1.019,1.02 v 68.648 h 5.098 v -68.988 q 0.06,-0.68 0.679,-0.68 h 8.157 q 0.679,0.113 0.679,0.68 v 70.347 q 0,7.477 -9.855,8.383 h -4.078 q -7.93,0 -10.196,-6.683 -0.339,-3.455 -0.339,-5.438 v -66.269 q 0,-0.397 1.019,-1.02 z m 29.793,0.17 h 8.156 q 0.567,0 1.926,8.1 1.416,8.043 3.852,24.185 0.793,5.494 1.416,8.213 0.679,2.662 0.963,2.662 6.457,-43.16 7.476,-43.16 h 8.496 q 0.68,0.113 0.68,0.68 v 77.824 q 0,0.68 -0.68,0.68 h -7.476 q -0.68,0 -0.68,-0.68 V 337.51 h -0.34 q -3.342,38.743 -4.078,38.743 h -7.137 q -1.133,0 -4.418,-39.422 h -0.34 v 38.742 q 0,0.68 -0.679,0.68 h -7.137 q -0.68,0 -0.68,-0.68 v -77.824 q 0.06,-0.68 0.68,-0.68 z m 69.272,0.113 h 7.929 q 0.623,0.114 0.623,0.68 v 27.754 h 0.34 q 4.928,-28.434 5.947,-28.434 h 7.873 q 0.51,0 1.02,1.02 -3.682,18.238 -5.664,27.867 -1.926,9.572 -2.266,10.478 3.002,14.047 4.928,23.846 1.982,9.742 3.002,15.52 l -0.68,0.34 h -8.213 q -1.076,0 -5.947,-28.434 h -0.34 v 27.754 q 0,0.68 -0.623,0.68 h -8.269 q -0.623,0 -0.623,-0.68 v -77.371 q 0,-0.453 0.963,-1.02 z m 43.556,34.891 h -0.34 q 0,4.191 -1.699,19.031 h 3.738 q 0,-3.455 -1.699,-19.031 z m -4.418,-35.004 h 8.496 q 1.076,0 4.758,35.344 0.34,0 5.438,43.5 l -0.68,0.34 h -7.816 q -1.303,0 -2.719,-15.633 H 642.6 q -1.813,15.633 -2.379,15.633 h -8.157 q -0.679,0 -0.679,-0.68 9.232,-78.504 9.855,-78.504 z m 32.682,-0.113 h 7.703 q 8.326,1.699 8.326,8.326 v 14.387 q 0,0.679 -0.68,0.679 h -7.986 q -0.51,0 -1.019,-1.019 v -12.688 h -5.325 v 25.375 h 6.967 q 8.043,2.039 8.043,7.987 v 28.093 q -1.699,8.213 -8.326,8.213 h -7.703 q -8.326,-1.586 -8.326,-7.929 v -14.67 q 0.06,-0.68 0.623,-0.68 h 8.043 q 0.679,0.113 0.679,0.68 v 13.027 h 5.325 v -25.375 h -6.684 q -7.986,-1.869 -7.986,-7.986 v -28.377 q 0,-6.174 8.326,-8.043 z m 30.473,0 h 7.703 q 8.326,1.699 8.326,8.326 v 14.387 q 0,0.679 -0.68,0.679 h -7.986 q -0.51,0 -1.02,-1.019 v -12.688 h -5.324 v 25.375 h 6.967 q 8.043,2.039 8.043,7.987 v 28.093 q -1.699,8.213 -8.326,8.213 h -7.703 q -8.327,-1.586 -8.327,-7.929 v -14.67 q 0.06,-0.68 0.623,-0.68 h 8.043 q 0.68,0.113 0.68,0.68 v 13.027 h 5.324 v -25.375 h -6.683 q -7.987,-1.869 -7.987,-7.986 v -28.377 q 0,-6.174 8.327,-8.043 z m 22.826,0.113 h 19.371 q 0.679,0.113 0.679,0.68 v 8.156 q 0,0.68 -0.679,0.68 h -10.535 v 25.488 h 8.836 q 0.679,0.113 0.679,0.68 v 8.156 q 0,0.679 -0.679,0.679 h -8.836 v 25.149 h 10.535 q 0.679,0.113 0.679,0.68 v 8.156 q 0,0.68 -0.679,0.68 h -19.371 q -0.68,0 -0.68,-0.68 v -77.824 q 0.06,-0.68 0.68,-0.68 z m 26.394,0 h 8.156 q 0.68,0.113 0.68,0.68 v 68.988 h 10.875 q 0.68,0.113 0.68,0.68 v 8.156 q 0,0.68 -0.68,0.68 h -19.711 q -0.679,0 -0.679,-0.68 v -77.824 q 0.06,-0.68 0.679,-0.68 z"
      transform="translate(25.254,62.393)" aria-label="Zentrum Kassel" />
</svg>