<?xml version="1.0" encoding="UTF-8" standalone="no"?>
<svg viewBox="0 0 865.207 440" width="865.207" height="440" xmlns="http://www.w3.org/2000/svg" fill="white">
  <path d="M 180,0 0,180 22,202 164,60 v 78.1 A 117.5,117.5 0 0 0 62,254.5 117.5,117.5 0 0 0 88.93,329.1 L 60,358 22,320 0,342 l 38,38 -38,38 22,22 38,-38 38,38 22,-22 -38,-38 29.8,-29.8 a 117.5,117.5 0 0 0 67.7,21.8 117.5,117.5 0 0 0 68.3,-22.2 l 10.2,10.2 -17,17 22,22 17,-17 27,27 h -27 v 31 h 58 22 v -22 -58 h -31 v 27 l -27,-27 17,-17 -22,-22 -17,17 -9.5,-9.5 A 117.5,117.5 0 0 0 297,254.5 117.5,117.5 0 0 0 195,138.1 V 59 l 143,143 22,-22 z m -0.5,168 a 86.5,86.5 0 0 1 86.5,86.5 86.5,86.5 0 0 1 -17.6,51.9 L 202,260 l -22,21.9 45.5,45.6 A 86.5,86.5 0 0 1 179.5,341 86.5,86.5 0 0 1 93,254.5 86.5,86.5 0 0 1 179.5,168 Z" />
  <path d="m 520.539,228.672 c -5.063,0 -9.062,1.724 -11.996,5.174 -2.935,3.448 -4.402,8.305 -4.402,14.57 0,4.294 0.547,7.919 1.64,10.875 1.094,2.886 2.791,5.56 5.092,8.023 l 11.736,12.67 c 2.187,2.394 4,4.787 5.438,7.18 1.439,2.324 2.158,5.422 2.158,9.293 0,3.238 -0.661,5.737 -1.984,7.496 -1.266,1.689 -3.164,2.533 -5.696,2.533 -2.474,0 -4.402,-0.879 -5.783,-2.638 -1.381,-1.831 -2.388,-4.154 -3.021,-6.969 -0.575,-2.816 -0.948,-5.738 -1.121,-8.764 l -8.631,2.852 c 0.23,4.927 1.035,9.256 2.416,12.986 1.381,3.731 3.394,6.653 6.041,8.764 2.704,2.112 6.072,3.166 10.099,3.166 3.28,0 6.155,-0.809 8.629,-2.428 2.532,-1.619 4.517,-3.942 5.955,-6.969 1.439,-3.097 2.159,-6.757 2.159,-10.98 0,-5.35 -1.008,-9.959 -3.022,-13.83 -2.014,-3.942 -4.344,-7.322 -6.99,-10.137 l -11.824,-12.67 c -1.611,-1.76 -2.789,-3.484 -3.537,-5.174 -0.691,-1.689 -1.036,-3.837 -1.036,-6.441 0,-3.097 0.662,-5.42 1.985,-6.969 1.381,-1.619 3.279,-2.428 5.695,-2.428 2.417,0 4.259,0.739 5.523,2.217 1.324,1.408 2.244,3.31 2.762,5.703 0.519,2.323 0.865,4.892 1.037,7.707 l 8.285,-2.746 c -0.287,-3.73 -0.863,-6.967 -1.726,-9.713 -0.806,-2.815 -1.929,-5.138 -3.367,-6.968 -1.381,-1.831 -3.135,-3.169 -5.264,-4.014 -2.072,-0.915 -4.488,-1.371 -7.25,-1.371 z m -212.137,0.738 v 56.699 c 0,5.983 0.49,11.228 1.467,15.733 0.978,4.434 2.821,7.883 5.526,10.346 2.703,2.463 6.586,3.695 11.65,3.695 5.063,0 8.918,-1.232 11.564,-3.695 2.705,-2.463 4.546,-5.912 5.524,-10.346 0.977,-4.505 1.467,-9.75 1.467,-15.733 V 229.41 h -9.235 v 57.227 c 0,3.66 -0.201,7.004 -0.603,10.031 -0.403,3.026 -1.267,5.42 -2.59,7.18 -1.323,1.759 -3.365,2.638 -6.127,2.638 -2.705,0 -4.748,-0.879 -6.129,-2.638 -1.323,-1.76 -2.185,-4.154 -2.588,-7.18 -0.403,-3.027 -0.603,-6.371 -0.603,-10.031 V 229.41 Z m 47.469,0 v 85.524 h 27.272 v -8.553 h -17.52 v -31.358 h 14.066 v -8.447 h -14.066 v -28.297 h 17.348 v -8.869 z m 35.125,0 v 85.524 h 27.272 v -8.553 h -17.52 v -31.358 h 14.068 v -8.447 h -14.068 v -28.297 h 17.348 v -8.869 z m 35.127,0 v 85.524 h 9.752 v -40.122 h 7.594 l 9.148,40.122 h 9.408 L 452.1,272.066 c 2.071,-0.845 3.739,-2.181 5.005,-4.011 1.266,-1.901 2.187,-4.189 2.762,-6.864 0.576,-2.745 0.863,-5.771 0.863,-9.08 0,-5.419 -0.748,-9.785 -2.244,-13.093 -1.438,-3.379 -3.683,-5.806 -6.732,-7.284 -3.049,-1.548 -6.904,-2.324 -11.565,-2.324 z m 44.791,0 v 85.524 h 27.274 v -8.553 h -17.52 v -31.358 h 14.066 v -8.447 h -14.066 v -28.297 h 17.346 v -8.869 z m -35.039,8.553 h 4.314 c 4.431,0 7.395,1.127 8.891,3.379 1.496,2.182 2.244,5.772 2.244,10.769 0,3.661 -0.403,6.512 -1.209,8.553 -0.805,2.042 -2.072,3.484 -3.799,4.328 -1.726,0.845 -3.968,1.268 -6.73,1.268 h -3.711 z" />
  <path d="m 371.4,360.7 v 7.8 h 17.5 l -18.7,61.7 v 7.7 h 28.1 v -7.7 h -19.7 l 19.7,-64.8 v -4.7 z m 33.5,0 v 77.2 h 24.9 v -7.7 h -16 v -28.3 h 12.8 v -7.6 h -12.8 v -25.5 h 15.8 v -8.1 z m 32,0 v 77.2 h 7.5 v -52.7 l 18.3,52.7 h 5.7 V 360.7 H 461 V 412 l -18.1,-51.3 z m 37.7,0 v 8.1 h 10.8 v 69.1 h 8.8 v -69.1 h 10.5 v -8.1 z m 36.2,0 v 77.2 h 8.9 v -36.2 h 6.9 l 8.3,36.2 h 8.6 l -9.1,-38.7 c 1.9,-0.7 3.4,-1.9 4.6,-3.6 1.1,-1.7 2,-3.8 2.5,-6.2 0.5,-2.5 0.8,-5.2 0.8,-8.2 0,-4.9 -0.7,-8.8 -2.1,-11.8 -1.3,-3 -3.3,-5.2 -6.1,-6.6 -2.8,-1.4 -6.3,-2.1 -10.5,-2.1 z m 40,0 v 51.2 c 0,5.4 0.5,10.1 1.4,14.2 0.9,4 2.5,7.1 5,9.3 2.5,2.3 6,3.4 10.6,3.4 4.6,0 8.1,-1.1 10.5,-3.4 2.5,-2.2 4.2,-5.3 5.1,-9.3 0.8,-4.1 1.3,-8.8 1.3,-14.2 v -51.2 h -8.4 v 51.7 c 0,3.3 -0.2,6.3 -0.6,9 -0.3,2.8 -1.1,4.9 -2.3,6.5 -1.2,1.6 -3.1,2.4 -5.6,2.4 -2.5,0 -4.3,-0.8 -5.6,-2.4 -1.2,-1.6 -2,-3.7 -2.3,-6.5 -0.4,-2.7 -0.6,-5.7 -0.6,-9 v -51.7 z m 43.3,0 -1.1,77.2 h 6.8 l 0.6,-56 10.1,56 h 4.7 l 10.2,-56 0.6,56 h 6.8 l -1.1,-77.2 h -8.2 l -10.6,62.6 -10.6,-62.6 z m -74.4,7.8 h 3.9 c 4,0 6.7,1 8.1,3 1.3,2 2,5.2 2,9.7 0,3.3 -0.3,5.9 -1.1,7.7 -0.7,1.9 -1.9,3.2 -3.4,4 -1.6,0.7 -3.6,1.1 -6.2,1.1 h -3.3 z" />
  <path d="m 749.1,360.1 c -4.5,0 -8.1,1.5 -10.8,4.7 -2.6,3.1 -3.9,7.4 -3.9,13.1 0,3.9 0.5,7.1 1.5,9.8 1,2.6 2.5,5 4.5,7.2 l 10.6,11.5 c 1.9,2.1 3.6,4.3 4.9,6.5 1.3,2.1 1.9,4.8 1.9,8.3 0,3 -0.6,5.2 -1.8,6.8 -1.1,1.5 -2.8,2.3 -5.1,2.3 -2.2,0 -3.9,-0.8 -5.2,-2.4 -1.2,-1.6 -2.1,-3.7 -2.7,-6.3 -0.5,-2.5 -0.9,-5.2 -1,-7.9 l -7.8,2.6 c 0.2,4.4 1,8.3 2.2,11.7 1.3,3.4 3.1,6 5.4,7.9 2.5,1.9 5.5,2.9 9.1,2.9 2.9,0 5.5,-0.8 7.8,-2.2 2.2,-1.5 4,-3.6 5.3,-6.3 1.3,-2.8 1.9,-6.1 1.9,-9.9 0,-4.8 -0.9,-9 -2.7,-12.5 -1.8,-3.6 -3.9,-6.6 -6.3,-9.1 l -10.6,-11.5 c -1.4,-1.6 -2.5,-3.1 -3.1,-4.6 -0.7,-1.6 -1,-3.5 -1,-5.9 0,-2.7 0.6,-4.8 1.8,-6.2 1.2,-1.5 3,-2.2 5.1,-2.2 2.2,0 3.8,0.6 5,2 1.2,1.2 2,3 2.5,5.1 0.4,2.1 0.7,4.4 0.9,7 l 7.4,-2.5 c -0.2,-3.4 -0.7,-6.3 -1.5,-8.8 -0.7,-2.5 -1.8,-4.6 -3,-6.3 -1.3,-1.6 -2.9,-2.8 -4.8,-3.6 -1.8,-0.8 -4,-1.2 -6.5,-1.2 z m 36.1,0 c -4.5,0 -8.1,1.5 -10.7,4.7 -2.7,3.1 -4,7.4 -4,13.1 0,3.9 0.5,7.1 1.5,9.8 1,2.6 2.5,5 4.6,7.2 l 10.5,11.5 c 2,2.1 3.6,4.3 4.9,6.5 1.3,2.1 1.9,4.8 1.9,8.3 0,3 -0.6,5.2 -1.8,6.8 -1.1,1.5 -2.8,2.3 -5.1,2.3 -2.2,0 -3.9,-0.8 -5.2,-2.4 -1.2,-1.6 -2.1,-3.7 -2.7,-6.3 -0.5,-2.5 -0.8,-5.2 -1,-7.9 l -7.7,2.6 c 0.2,4.4 0.9,8.3 2.1,11.7 1.3,3.4 3.1,6 5.4,7.9 2.5,1.9 5.5,2.9 9.1,2.9 3,0 5.5,-0.8 7.8,-2.2 2.2,-1.5 4,-3.6 5.3,-6.3 1.3,-2.8 2,-6.1 2,-9.9 0,-4.8 -1,-9 -2.8,-12.5 -1.8,-3.6 -3.9,-6.6 -6.2,-9.1 l -10.7,-11.5 c -1.4,-1.6 -2.5,-3.1 -3.1,-4.6 -0.7,-1.6 -1,-3.5 -1,-5.9 0,-2.7 0.6,-4.8 1.8,-6.2 1.3,-1.5 3,-2.2 5.1,-2.2 2.2,0 3.9,0.6 5,2 1.2,1.2 2,3 2.5,5.1 0.4,2.1 0.7,4.4 0.9,7 L 801,380 c -0.2,-3.4 -0.7,-6.3 -1.5,-8.8 -0.7,-2.5 -1.7,-4.6 -3,-6.3 -1.3,-1.6 -2.8,-2.8 -4.8,-3.6 -1.8,-0.8 -4,-1.2 -6.5,-1.2 z m -125.4,0.6 v 77.2 h 8.8 v -27.2 l 4,-9 12,36.2 h 8.6 l -14.4,-43.1 12.4,-34.1 H 683 l -14.4,36.4 v -36.4 z m 48.3,0 -13.3,77.2 h 8.2 l 3,-19.4 h 12.8 l 2.9,19.4 h 8.3 l -13.4,-77.2 z m 100.8,0 v 77.2 h 24.5 v -7.7 h -15.8 v -28.3 h 12.7 v -7.6 h -12.7 v -25.5 h 15.6 v -8.1 z m 31.5,0 v 77.2 h 24.8 v -7.7 h -16 v -69.5 z m -128,15.3 5.3,34.8 h -10.5 z" />
</svg>
